<?xml version="1.0" encoding="UTF-8" standalone="no"?>
<!-- Created with Inkscape (http://www.inkscape.org/) -->

<svg
   width="205mm"
   height="205mm"
   viewBox="0 0 205 205"
   version="1.1"
   id="svg1"
   sodipodi:docname="object-recognition-favicon.svg"
   inkscape:version="1.3 (0e150ed6c4, 2023-07-21)"
   xmlns:inkscape="http://www.inkscape.org/namespaces/inkscape"
   xmlns:sodipodi="http://sodipodi.sourceforge.net/DTD/sodipodi-0.dtd"
   xmlns:xlink="http://www.w3.org/1999/xlink"
   xmlns="http://www.w3.org/2000/svg"
   xmlns:svg="http://www.w3.org/2000/svg">
  <sodipodi:namedview
     id="namedview1"
     pagecolor="#ffffff"
     bordercolor="#999999"
     borderopacity="1"
     inkscape:showpageshadow="2"
     inkscape:pageopacity="0"
     inkscape:pagecheckerboard="0"
     inkscape:deskcolor="#d1d1d1"
     inkscape:document-units="mm"
     inkscape:zoom="0.69219276"
     inkscape:cx="541.03426"
     inkscape:cy="392.23178"
     inkscape:window-width="1920"
     inkscape:window-height="991"
     inkscape:window-x="-9"
     inkscape:window-y="-9"
     inkscape:window-maximized="1"
     inkscape:current-layer="layer7"
     showguides="true">
    <sodipodi:guide
       position="-109.32046,113.5251"
       orientation="1,0"
       id="guide67"
       inkscape:locked="false" />
  </sodipodi:namedview>
  <defs
     id="defs1">
    <linearGradient
       id="linearGradient65"
       inkscape:collect="always">
      <stop
         style="stop-color:#fc9197;stop-opacity:1;"
         offset="0"
         id="stop65" />
      <stop
         style="stop-color:#b472b9;stop-opacity:1;"
         offset="1"
         id="stop66" />
    </linearGradient>
    <linearGradient
       inkscape:collect="always"
       xlink:href="#linearGradient65"
       id="linearGradient66"
       x1="14.525212"
       y1="133.63293"
       x2="187.64694"
       y2="133.63293"
       gradientUnits="userSpaceOnUse" />
    <linearGradient
       inkscape:collect="always"
       xlink:href="#linearGradient65"
       id="linearGradient69"
       gradientUnits="userSpaceOnUse"
       x1="14.525212"
       y1="133.63293"
       x2="187.64694"
       y2="133.63293" />
    <linearGradient
       inkscape:collect="always"
       xlink:href="#linearGradient65"
       id="linearGradient70"
       gradientUnits="userSpaceOnUse"
       x1="14.525212"
       y1="133.63293"
       x2="187.64694"
       y2="133.63293" />
    <linearGradient
       inkscape:collect="always"
       xlink:href="#linearGradient65"
       id="linearGradient71"
       gradientUnits="userSpaceOnUse"
       x1="14.525212"
       y1="133.63293"
       x2="187.64694"
       y2="133.63293" />
    <linearGradient
       inkscape:collect="always"
       xlink:href="#linearGradient65"
       id="linearGradient72"
       gradientUnits="userSpaceOnUse"
       x1="14.525212"
       y1="133.63293"
       x2="187.64694"
       y2="133.63293" />
    <linearGradient
       inkscape:collect="always"
       xlink:href="#linearGradient65"
       id="linearGradient73"
       gradientUnits="userSpaceOnUse"
       x1="14.525212"
       y1="133.63293"
       x2="187.64694"
       y2="133.63293" />
    <linearGradient
       inkscape:collect="always"
       xlink:href="#linearGradient65"
       id="linearGradient74"
       gradientUnits="userSpaceOnUse"
       x1="14.525212"
       y1="133.63293"
       x2="187.64694"
       y2="133.63293" />
    <linearGradient
       inkscape:collect="always"
       xlink:href="#linearGradient65"
       id="linearGradient75"
       gradientUnits="userSpaceOnUse"
       x1="14.525212"
       y1="133.63293"
       x2="187.64694"
       y2="133.63293" />
  </defs>
  <g
     inkscape:groupmode="layer"
     id="layer7"
     inkscape:label="icon"
     style="fill:url(#linearGradient66)"
     transform="matrix(1.0750694,0,0,1.0715679,-6.8239892,-39.951852)">
    <path
       d="m 152.89558,105.57857 h -14.14281 v 30.4984 c 0,0.37058 -0.0369,0.7326 -0.108,1.08158 -0.071,0.34899 -0.17606,0.6853 -0.31109,1.00563 -0.13504,0.32032 -0.30052,0.62438 -0.49248,0.90898 -0.19196,0.28461 -0.41034,0.54987 -0.65216,0.79169 -0.24181,0.24181 -0.50708,0.4602 -0.79168,0.65215 -0.2846,0.19196 -0.58866,0.35744 -0.90899,0.49248 -0.32033,0.13504 -0.65664,0.23952 -1.00562,0.31058 -0.34899,0.071 -0.71049,0.10852 -1.08107,0.10852 h -54.3109 v 16.4362 h 68.4537 c 0.37058,0 0.73209,-0.0375 1.08107,-0.10852 0.34899,-0.071 0.6853,-0.17554 1.00563,-0.31057 0.32032,-0.13504 0.62438,-0.30052 0.90899,-0.49248 0.2846,-0.19196 0.54986,-0.41034 0.79168,-0.65216 0.24181,-0.24181 0.4602,-0.50708 0.65215,-0.79168 0.19196,-0.2846 0.35744,-0.58866 0.49248,-0.90899 0.13504,-0.32033 0.24004,-0.65663 0.31109,-1.00562 0.0711,-0.34899 0.10801,-0.71049 0.10801,-1.08107 z"
       style="display:inline;fill:url(#linearGradient69);fill-opacity:1;stroke-width:0.227278"
       id="path61" />
    <path
       d="m 79.09078,157.86478 v -16.4362 H 60.743579 v 16.4362 z"
       style="display:inline;fill:url(#linearGradient70);fill-opacity:1;stroke-width:0.344828"
       id="path60" />
    <path
       d="m 152.89558,72.70564 v 32.87293 h 8.75915 c 0.37058,0 0.73209,0.037 1.08107,0.108 0.34899,0.071 0.6853,0.17606 1.00563,0.31109 0.32032,0.13504 0.62438,0.30052 0.90899,0.49248 0.2846,0.19196 0.54986,0.41034 0.79168,0.65216 0.24181,0.24181 0.4602,0.50708 0.65215,0.79168 0.19196,0.2846 0.35744,0.58866 0.49248,0.90899 0.13504,0.32033 0.23952,0.65663 0.31058,1.00562 0.071,0.34899 0.10852,0.71049 0.10852,1.08107 v 76.06564 c 0,0.37059 -0.0375,0.73209 -0.10852,1.08108 -0.0711,0.34898 -0.17554,0.68581 -0.31058,1.00614 -0.13504,0.32032 -0.30052,0.62438 -0.49248,0.90898 -0.19195,0.28461 -0.41034,0.54936 -0.65215,0.79117 -0.24182,0.24181 -0.50708,0.46071 -0.79168,0.65267 -0.28461,0.19196 -0.58867,0.35693 -0.90899,0.49196 -0.32033,0.13504 -0.65664,0.24004 -1.00563,0.3111 -0.34898,0.071 -0.71049,0.10852 -1.08107,0.10852 H 84.442391 c -0.370581,0 -0.732084,-0.0375 -1.081071,-0.10852 -0.348987,-0.0711 -0.685812,-0.17606 -1.00614,-0.3111 -0.320328,-0.13503 -0.624385,-0.3 -0.908989,-0.49196 -0.284603,-0.19196 -0.549352,-0.41086 -0.791166,-0.65267 -0.241814,-0.24181 -0.460714,-0.50656 -0.652673,-0.79117 -0.191959,-0.2846 -0.357439,-0.58866 -0.492477,-0.90898 -0.135037,-0.32033 -0.239523,-0.65716 -0.310575,-1.00614 -0.07105,-0.34899 -0.10852,-0.71049 -0.10852,-1.08108 V 157.86478 H 60.743579 v 47.86013 c 0,0.37058 0.03695,0.7326 0.108004,1.08159 0.07105,0.34899 0.176054,0.68529 0.311092,1.00562 0.135038,0.32033 0.300001,0.62439 0.49196,0.90899 0.191958,0.2846 0.410859,0.54987 0.652673,0.79168 0.241814,0.24182 0.506562,0.4602 0.791166,0.65216 0.284604,0.19196 0.589177,0.35744 0.909505,0.49248 0.320329,0.13503 0.656637,0.23952 1.005624,0.31057 0.348987,0.0711 0.71049,0.10852 1.081071,0.10852 H 182.29533 c 0.37058,0 0.73209,-0.0375 1.08107,-0.10852 0.34899,-0.071 0.68582,-0.17554 1.00614,-0.31057 0.32033,-0.13504 0.62439,-0.30052 0.90899,-0.49248 0.28461,-0.19196 0.54935,-0.41034 0.79117,-0.65216 0.24181,-0.24181 0.46071,-0.50708 0.65267,-0.79168 0.19196,-0.2846 0.35744,-0.58866 0.49248,-0.90899 0.13504,-0.32033 0.23952,-0.65663 0.31057,-1.00562 0.0711,-0.34899 0.10852,-0.71101 0.10852,-1.08159 V 78.057251 c 0,-0.370581 -0.0375,-0.732084 -0.10852,-1.081071 -0.0711,-0.348987 -0.17553,-0.685295 -0.31057,-1.005623 -0.13504,-0.320329 -0.30052,-0.624902 -0.49248,-0.909506 -0.19196,-0.284603 -0.41086,-0.549352 -0.65267,-0.791166 -0.24182,-0.241814 -0.50656,-0.460714 -0.79117,-0.652673 -0.2846,-0.191959 -0.58866,-0.356922 -0.90899,-0.49196 -0.32032,-0.135038 -0.65715,-0.24004 -1.00614,-0.311092 -0.34898,-0.07105 -0.71049,-0.10852 -1.08107,-0.10852 z"
       style="display:inline;fill:url(#linearGradient71);fill-opacity:1;stroke-width:0.344828"
       id="path59" />
    <path
       d="M 60.743579,141.42858 H 79.09078 v -30.49892 c 0,-0.37058 0.03747,-0.73208 0.10852,-1.08107 0.07105,-0.34899 0.175538,-0.68529 0.310575,-1.00562 0.135038,-0.32033 0.300518,-0.62439 0.492477,-0.90899 0.191959,-0.2846 0.410859,-0.54987 0.652673,-0.79168 0.241814,-0.24182 0.506563,-0.4602 0.791166,-0.65216 0.284604,-0.19196 0.588661,-0.35744 0.908989,-0.49248 0.320328,-0.13503 0.657153,-0.24004 1.00614,-0.31109 0.348987,-0.071 0.71049,-0.108 1.081071,-0.108 H 138.75277 V 87.532642 c 0,-0.370581 -0.0369,-0.732084 -0.108,-1.081071 -0.071,-0.348988 -0.17606,-0.685296 -0.31109,-1.005624 -0.13504,-0.320328 -0.30052,-0.624384 -0.49248,-0.908988 -0.19196,-0.284604 -0.41034,-0.549869 -0.65216,-0.791683 -0.24181,-0.241814 -0.50708,-0.460198 -0.79168,-0.652157 -0.2846,-0.191958 -0.58866,-0.357438 -0.90899,-0.492476 -0.32033,-0.135038 -0.65664,-0.240041 -1.00562,-0.311092 -0.34899,-0.07105 -0.71049,-0.108004 -1.08107,-0.108004 H 60.743579 Z"
       style="display:inline;fill:url(#linearGradient72);fill-opacity:1;stroke-width:0.344828"
       id="path58" />
    <path
       d="M 152.89558,72.70564 H 66.094674 c -0.370581,0 -0.732084,0.03747 -1.081071,0.10852 -0.348987,0.07105 -0.685295,0.176054 -1.005624,0.311092 -0.320328,0.135038 -0.624901,0.300001 -0.909505,0.49196 -0.284604,0.191959 -0.549352,0.410859 -0.791166,0.652673 -0.241814,0.241814 -0.460715,0.506563 -0.652673,0.791166 -0.191959,0.284604 -0.356922,0.589177 -0.49196,0.909506 -0.135038,0.320328 -0.24004,0.656636 -0.311092,1.005623 -0.07105,0.348987 -0.108004,0.71049 -0.108004,1.081071 v 4.124296 h 72.658101 c 0.37058,0 0.73208,0.03695 1.08107,0.108004 0.34898,0.07105 0.68529,0.176054 1.00562,0.311092 0.32033,0.135038 0.62439,0.300518 0.90899,0.492476 0.2846,0.191959 0.54987,0.410343 0.79168,0.652157 0.24182,0.241814 0.4602,0.507079 0.65216,0.791683 0.19196,0.284604 0.35744,0.58866 0.49248,0.908988 0.13503,0.320328 0.24004,0.656636 0.31109,1.005624 0.0711,0.348987 0.108,0.71049 0.108,1.081071 v 18.045928 h 14.14281 z"
       style="display:inline;fill:url(#linearGradient73);fill-opacity:1;stroke-width:0.344828"
       id="path57" />
    <path
       d="m 19.876306,56.189335 c -0.370581,0 -0.732084,0.03695 -1.081071,0.108004 -0.348987,0.07105 -0.685295,0.176054 -1.005623,0.311092 -0.320328,0.135038 -0.624385,0.300518 -0.908989,0.492476 -0.284603,0.191959 -0.549869,0.410343 -0.791683,0.652157 -0.241814,0.241814 -0.460198,0.507079 -0.652156,0.791683 -0.191959,0.284604 -0.357439,0.58866 -0.492477,0.908988 -0.135037,0.320329 -0.24004,0.656637 -0.311092,1.005624 -0.07105,0.348987 -0.108003,0.71049 -0.108003,1.081071 v 90.97326 c 0,0.37058 0.03695,0.73208 0.108003,1.08107 0.07105,0.34899 0.176055,0.68529 0.311092,1.00562 0.135038,0.32033 0.300518,0.62439 0.492477,0.90899 0.191958,0.2846 0.410342,0.54987 0.652156,0.79168 0.241814,0.24182 0.50708,0.4602 0.791683,0.65216 0.284604,0.19196 0.588661,0.35744 0.908989,0.49248 0.320328,0.13503 0.656636,0.23952 1.005623,0.31057 0.348987,0.0711 0.71049,0.10852 1.081071,0.10852 h 40.867273 v -16.4362 H 34.401518 c -0.370581,0 -0.732084,-0.0375 -1.081071,-0.10852 -0.348987,-0.0711 -0.685295,-0.17554 -1.005624,-0.31058 -0.320328,-0.13504 -0.624901,-0.30052 -0.909505,-0.49248 -0.284604,-0.19195 -0.549352,-0.41034 -0.791166,-0.65215 -0.241814,-0.24182 -0.460715,-0.50708 -0.652673,-0.79169 -0.191959,-0.2846 -0.356922,-0.58866 -0.49196,-0.90898 -0.135038,-0.32033 -0.24004,-0.65664 -0.311092,-1.00563 -0.07105,-0.34898 -0.108004,-0.711 -0.108004,-1.08158 V 87.532642 c 0,-0.370581 0.03695,-0.732084 0.108004,-1.081071 0.07105,-0.348988 0.176054,-0.685296 0.311092,-1.005624 0.135038,-0.320328 0.300001,-0.624384 0.49196,-0.908988 0.191958,-0.284604 0.410859,-0.549869 0.652673,-0.791683 0.241814,-0.241814 0.506562,-0.460198 0.791166,-0.652157 0.284604,-0.191958 0.589177,-0.357438 0.909505,-0.492476 0.320329,-0.135038 0.656637,-0.240041 1.005624,-0.311092 0.348987,-0.07105 0.71049,-0.108004 1.081071,-0.108004 h 26.342061 v -4.124296 c 0,-0.370581 0.03695,-0.732084 0.108004,-1.081071 0.07105,-0.348987 0.176054,-0.685295 0.311092,-1.005623 0.135038,-0.320329 0.300001,-0.624902 0.49196,-0.909506 0.191958,-0.284603 0.410859,-0.549352 0.652673,-0.791166 0.241814,-0.241814 0.506562,-0.460714 0.791166,-0.652673 0.284604,-0.191959 0.589177,-0.356922 0.909505,-0.49196 0.320329,-0.135038 0.656637,-0.24004 1.005624,-0.311092 0.348987,-0.07105 0.71049,-0.10852 1.081071,-0.10852 H 152.89558 V 61.54043 c 0,-0.370581 -0.037,-0.732084 -0.10801,-1.081071 -0.071,-0.348987 -0.17605,-0.685295 -0.31109,-1.005624 -0.13504,-0.320328 -0.30052,-0.624384 -0.49248,-0.908988 -0.19195,-0.284604 -0.41034,-0.549869 -0.65215,-0.791683 -0.24182,-0.241814 -0.50708,-0.460198 -0.79168,-0.652157 -0.28461,-0.191958 -0.58867,-0.357438 -0.90899,-0.492476 -0.32033,-0.135038 -0.65664,-0.24004 -1.00563,-0.311092 -0.34898,-0.07105 -0.71049,-0.108004 -1.08107,-0.108004 z"
       style="display:inline;fill:url(#linearGradient74);fill-opacity:1;stroke-width:0.308656"
       id="path56" />
    <g
       inkscape:groupmode="layer"
       id="layer8"
       inkscape:label="labels"
       style="fill:url(#linearGradient75)">
      <path
         style="fill:#ffffff;fill-opacity:1;fill-rule:nonzero;stroke-width:0.264583"
         id="path62"
         d="m 69.279983,80.917665 c -0.41811,1.913258 -1.109792,3.758409 -1.748536,5.606585 -1.016926,2.695654 -1.533784,5.503317 -1.855216,8.353528 -0.150341,1.784241 -0.59487,4.572447 1.094338,5.786592 0.395333,0.28416 0.87739,0.42227 1.316085,0.6334 0.481883,-0.0116 0.977162,0.0785 1.445647,-0.0349 0.993386,-0.24054 1.704602,-0.87979 2.467864,-1.493353 1.081294,-0.869212 2.093581,-1.801731 3.098006,-2.757321 2.377514,-2.155177 4.602766,-4.469963 6.80684,-6.800191 1.435936,-1.671344 2.811597,-3.380518 4.386006,-4.924555 0.539678,-0.381055 1.076687,-1.143645 1.774886,-1.277818 -0.08,0.202636 -0.0065,0.08754 -0.34144,0.226518 -0.02834,0.04766 -0.07928,0.08783 -0.08501,0.142978 -0.0094,0.09007 0.03055,0.17857 0.04226,0.268367 0.07201,0.552135 0.254759,1.153713 0.243874,1.708967 -0.0027,0.136729 -0.07079,0.264189 -0.106185,0.396283 -0.007,-0.181732 0.02982,-0.370592 -0.02106,-0.545195 -0.05315,-0.18237 -0.06807,0.378663 -0.151267,0.549431 -0.180068,0.369593 -0.412187,0.701791 -0.652992,1.032904 -0.698934,0.891455 -1.383353,1.772227 -1.866474,2.807621 -0.394179,0.844774 -0.589653,1.574135 -0.863161,2.455627 -0.411622,1.908336 -1.61182,5.203465 0.588833,6.497232 0.502444,0.295389 1.130964,0.282366 1.696445,0.42355 0.463812,-0.15821 0.949926,-0.261974 1.391433,-0.474625 0.339847,-0.163684 1.21334,-0.907119 1.529956,-1.163423 0.755192,-0.611333 1.489953,-1.242166 2.224947,-1.877727 1.993075,-1.656249 3.454578,-3.778237 4.812541,-5.956956 0.896675,-1.611611 2.067256,-3.030278 3.337301,-4.357248 1.090396,-1.09442 2.316986,-1.990143 3.707226,-2.656017 0.16999,-0.06683 0.3297,-0.171093 0.50997,-0.200499 0.23645,-0.03857 -0.44563,0.195802 -0.68386,0.221078 -0.10423,0.01106 -0.25015,-0.06355 -0.31383,0.01971 -0.0207,0.02711 0.0986,0.705872 0.11777,0.821786 -0.0347,-0.327229 0.17044,1.388893 0.0946,1.046826 -0.053,-0.239027 -0.009,-0.495244 -0.0774,-0.730387 -0.031,-0.107003 -0.0162,0.222805 -0.038,0.332054 -0.0631,0.315839 -0.29754,0.736688 -0.40721,0.973328 -1.47038,2.722227 -2.927905,5.44884 -4.487637,8.121216 -0.582615,1.032764 -1.090123,2.103282 -1.496724,3.217069 -0.07752,0.212371 -0.311898,0.44033 -0.213357,0.643803 0.558287,1.15276 0.980236,2.582227 2.087523,3.226007 0.63704,0.37038 1.369075,-0.54555 2.053605,-0.81833 2.54328,-2.283405 5.38113,-4.200174 8.28893,-5.983629 1.80195,-1.149467 3.5657,-2.378713 4.93328,-4.047408 0.86704,-1.057932 1.59795,-2.247128 2.34234,-3.390064 0.84698,-1.34402 1.61985,-2.731127 2.39629,-4.116102 0.29609,-0.528153 0.58493,-1.163032 1.02837,-1.593794 0.17963,0.03158 0.40326,0.06105 -0.40224,0.223131 -0.89994,0.181091 -0.9879,-0.408483 -0.84511,0.715415 0.0218,0.628369 0.1924,1.281107 0.13339,1.911831 -0.0132,0.141782 0.0205,-0.544613 -0.0547,-0.423688 -0.11538,0.185523 -0.0396,0.436253 -0.0859,0.649764 -0.0556,0.256677 -0.14605,0.504568 -0.21907,0.756851 -0.90656,2.370344 -1.97697,4.686131 -2.61232,7.148735 0.0922,0.796938 -0.024,1.64702 0.27657,2.390814 0.19689,0.487133 0.69457,0.806191 1.13278,1.096074 1.08454,0.717433 2.49028,0.504071 3.64665,0.197797 1.48055,-0.491596 2.54905,-1.605947 3.49638,-2.792296 1.01126,-1.40748 1.50816,-3.066264 2.11178,-4.667192 0.42762,-1.210505 0.22747,-0.613415 0.60257,-1.790546 1.44205,-2.861651 -2.60494,-4.901007 -4.04698,-2.039358 v 0 c -0.27115,1.012457 -0.12112,0.497266 -0.45343,1.544608 -0.48213,1.276117 -0.90648,2.565114 -1.50118,3.788865 -0.37634,0.590796 -0.82815,1.225677 -1.4673,1.544614 -0.0887,0.157128 -0.26106,0.11653 -0.2398,0.139668 0.0714,0.07773 0.1945,0.09323 0.26746,0.169503 0.76151,0.796102 0.4555,0.681961 0.41101,2.041059 0.0143,-0.98239 0.3747,-1.851697 0.71859,-2.766827 0.48111,-1.280255 1.0063,-2.544813 1.56882,-3.791315 0.17268,-0.435248 0.3768,-0.859303 0.51806,-1.305743 0.59153,-1.869501 0.30449,-3.927086 -0.11393,-5.798174 -0.24614,-0.702755 -0.38412,-1.273651 -0.86249,-1.876938 -0.98308,-1.239788 -2.34695,-1.704295 -3.86985,-1.196325 -0.3473,0.115846 -0.62857,0.375563 -0.94286,0.563346 -0.26237,0.260993 -0.5523,0.496951 -0.78713,0.782984 -0.29543,0.359823 -0.80045,1.336019 -0.99751,1.717855 -0.93581,1.813454 -0.16531,0.434581 -1.28304,2.441088 -0.27559,0.494739 -0.55822,0.985533 -0.83732,1.478299 -0.64419,1.016063 -1.20054,1.951881 -1.93881,2.900185 -1.11618,1.433732 -2.55098,2.500979 -4.0785,3.460824 -2.9281,1.873088 -5.81425,3.827679 -8.526482,6.004615 1.923942,0.360937 0.397253,-0.118337 2.363922,3.307459 0.0507,0.08828 -0.0223,-0.204783 -0.006,-0.305327 0.1474,-0.930473 0.62395,-1.76735 1.0055,-2.612924 1.51265,-2.723155 2.98521,-5.469642 4.58301,-8.144089 0.42503,-0.710179 0.71023,-1.093457 0.97944,-1.850359 0.51911,-1.459439 0.34203,-3.037509 -0.0637,-4.499652 -0.21281,-0.616656 -0.41326,-1.338842 -0.817,-1.867747 -1.21196,-1.587645 -2.77814,-2.028809 -4.60256,-1.200001 -1.79426,0.862136 -3.4171,1.957411 -4.842175,3.35848 -1.519256,1.498785 -2.912192,3.13432 -3.935999,5.018741 -1.113224,1.863577 -2.29312,3.683011 -3.96063,5.10984 -0.908683,0.777695 -1.843053,1.518033 -2.756149,2.289008 -0.106069,0.08956 -0.36436,0.155027 -0.306977,0.281435 0.06229,0.137207 0.300455,0.02341 0.450683,0.03512 1.392547,0.584936 1.66253,0.577951 1.483577,2.196325 -0.02519,0.227931 -0.01463,-0.459372 0.0039,-0.687943 0.04744,-0.586528 0.194603,-1.259597 0.305474,-1.833647 0.207323,-0.809247 0.367681,-1.757662 0.772766,-2.501625 0.306708,-0.563287 0.827643,-0.979908 1.170247,-1.517967 0.745625,-0.932265 1.714365,-2.22503 1.903447,-3.419814 0.09679,-0.611555 0.07945,-1.235779 0.119179,-1.853668 -0.183811,-1.776307 -0.548664,-3.796612 -1.946929,-5.062649 -0.331636,-0.300273 -0.735346,-0.509759 -1.103018,-0.76464 -0.501052,-0.120515 -0.988579,-0.333502 -1.503157,-0.361548 -1.672296,-0.09115 -3.027256,1.156234 -4.202951,2.150827 -1.638509,1.579483 -3.039279,3.345421 -4.438716,5.137433 -2.137637,2.292469 -4.349771,4.51512 -6.667325,6.626619 -0.51612,0.489119 -1.324568,1.268174 -1.874547,1.741638 -0.312433,0.268963 -0.638206,0.522031 -0.958246,0.781894 -0.232431,0.188725 -0.498838,0.34135 -0.699159,0.563862 -0.117933,0.130995 0.461076,0.556514 0.434798,0.30094 0.04003,0.02844 0.676664,0.410345 0.674899,0.55795 -0.0024,0.189045 0.04422,0.739159 -0.03226,0.566256 -0.110524,-0.249899 0.0021,-1.666036 0.008,-1.780434 0.200173,-2.565196 0.566306,-5.104805 1.482661,-7.52712 0.683258,-1.982746 1.470877,-3.929814 2.065153,-5.943428 1.2881,-2.980222 -2.92657,-4.80187 -4.21467,-1.821649 z" />
      <path
         style="fill:#ffffff;fill-opacity:1;fill-rule:nonzero;stroke-width:0.264583"
         id="path63"
         d="m 19.58862,61.050323 c -0.513493,2.542751 -1.191256,5.04703 -1.719318,7.586564 -0.195947,1.394346 -0.550752,2.800623 -0.565695,4.217215 -0.0059,0.560882 0.01675,1.121704 0.02512,1.682554 0.501483,1.928609 1.595252,2.637806 3.474599,2.966895 0.352844,-0.01222 0.711476,0.02811 1.058533,-0.03669 2.348085,-0.43847 4.100042,-2.16762 5.745306,-3.754493 2.101519,-2.240161 3.987421,-4.67913 6.266661,-6.743933 1.255115,-0.89911 2.871811,-2.388044 4.480645,-2.587911 0.224517,0.239467 -0.402307,0.0749 -0.47226,0.26787 -0.03075,0.08482 0.02109,0.354324 -0.01196,0.270383 -0.106953,-0.271579 -0.143846,-0.565761 -0.215771,-0.848643 -0.451022,2.536261 -1.720519,4.85617 -2.851271,7.144977 -0.507797,1.060276 -0.760953,1.559298 -1.219253,2.629485 -0.71364,1.666433 -1.431412,3.49862 0.245268,5.135025 0.587489,0.573379 1.594086,0.393086 2.39113,0.589629 0.573154,-0.114887 1.1601,-0.174892 1.719458,-0.344659 3.469577,-1.053026 6.554399,-3.884832 9.255678,-6.19992 2.816815,-2.409227 5.085728,-5.354672 7.665447,-7.993542 0.716267,-0.626848 1.422728,-1.357685 2.326958,-1.72118 0.08757,-0.03521 0.337293,-0.112017 0.280807,-0.0364 -0.242024,0.324004 -1.136036,0.01603 -1.241059,-0.0016 -0.02722,0.08725 -0.0794,0.170376 -0.08165,0.261742 -0.005,0.202916 0.05331,0.40309 0.0602,0.605951 0.03046,0.896789 -0.06493,1.513689 -0.119766,2.295059 -0.100714,1.453751 -0.7854,2.709447 -1.37958,4.00412 -0.772988,1.817764 -1.262034,3.174037 -0.501129,5.194027 0.127243,0.337796 0.461182,0.555429 0.691774,0.833144 0.352854,0.206404 0.68107,0.462343 1.058561,0.619215 1.325994,0.55104 3.388342,0.475088 4.826003,0.502354 3.093892,0.1462 4.52329,-1.242809 6.461868,-3.403259 1.692661,-2.015591 2.767007,-4.41022 3.551621,-6.898926 0.07388,-0.239662 0.147762,-0.479324 0.221642,-0.718986 1.452507,-2.8624 -2.595542,-4.916557 -4.048049,-2.054154 v 0 c -0.07582,0.2614 -0.151632,0.522801 -0.227451,0.784201 -0.480447,1.998237 -1.239615,3.914423 -2.490883,5.565598 -1.506373,1.786588 0.0931,-0.05923 -1.368533,1.488556 -0.110051,0.116539 -0.184441,0.266084 -0.304872,0.371862 -0.476747,0.41874 -1.146881,0.355261 -1.72665,0.33506 -0.787595,-0.01275 -1.575284,-0.02032 -2.36008,-0.09655 -0.185552,-0.01802 -0.36957,-0.04943 -0.554667,-0.07165 -0.05589,-0.0067 -0.183603,-0.06927 -0.168191,-0.01513 0.02635,0.09258 0.145233,0.126383 0.217848,0.189576 0.392374,0.532569 0.308215,0.333357 0.270901,1.51597 -0.0019,0.0574 -0.132908,-0.04543 -0.138406,-0.102589 -0.01572,-0.163299 0.04945,-0.32448 0.08187,-0.485297 0.03419,-0.169605 0.0691,-0.339486 0.117841,-0.505497 0.05718,-0.194751 0.132987,-0.383542 0.199479,-0.575315 0.325875,-0.784016 0.744848,-1.513536 1.086237,-2.287733 0.398327,-0.903319 0.618392,-1.883497 0.796755,-2.848933 0.21593,-1.899218 0.407353,-4.656859 -0.315835,-6.496642 -0.166886,-0.424564 -0.413965,-0.813052 -0.620946,-1.219576 -0.550656,-0.386109 -1.025834,-0.912841 -1.651963,-1.158325 -1.919922,-0.752736 -4.50338,1.54136 -5.747244,2.696507 -2.526287,2.563519 -4.670685,5.491265 -7.378206,7.883993 -2.437611,2.157791 -5.158755,4.748445 -8.392022,5.564965 0.993262,0.895334 0.797565,0.482484 0.901999,2.444978 0.0056,0.104367 -0.208859,-0.139504 -0.19763,-0.243414 0.03725,-0.344665 0.206509,-0.662366 0.330504,-0.986105 0.274645,-0.717082 0.778491,-1.802384 1.090461,-2.492264 1.355051,-2.738866 2.824951,-5.458555 3.587192,-8.437694 -0.03145,-0.843222 0.02191,-1.693903 -0.09434,-2.529666 -0.04533,-0.325906 -0.21984,-0.624205 -0.383971,-0.909389 -0.845415,-1.46895 -2.261407,-2.124374 -3.925382,-2.000599 -0.346493,0.07546 -0.700194,0.123246 -1.039479,0.226375 -1.985214,0.603425 -3.638601,2.060353 -5.269495,3.262363 -0.44768,0.389088 -0.911675,0.760164 -1.343038,1.167267 -1.846575,1.742729 -3.315124,3.853551 -5.088414,5.66691 -0.476572,0.472085 -1.247841,1.263025 -1.787192,1.701493 -0.67972,0.552582 -0.629184,0.418457 -1.301334,0.827786 -0.07882,0.048 -0.148016,0.11027 -0.222024,0.165407 -0.03274,0.01826 -0.06548,0.03653 -0.09823,0.05479 -0.05573,-0.0073 -0.113481,-0.03856 -0.167179,-0.02196 -0.02928,0.009 0.05235,0.03197 0.07733,0.04973 0.09631,0.06848 0.355743,0.39787 0.380335,0.3098 -0.01073,0.250894 -0.0091,0.502629 -0.03221,0.752684 -0.01653,0.178586 0.0059,-0.358666 0.01232,-0.5379 0.03813,-1.0732 0.142859,-2.143363 0.30581,-3.204792 0.426084,-2.456043 1.050143,-4.864391 1.682179,-7.274364 1.404547,-2.915904 -2.719167,-4.902235 -4.123714,-1.986328 z" />
    </g>
  </g>
  <g
     inkscape:groupmode="layer"
     id="layer2"
     inkscape:label="Palette"
     style="display:none">
    <rect
       style="fill:#fc9197;fill-opacity:1;stroke-width:0.264583"
       id="rect1"
       width="19.876448"
       height="19.876448"
       x="9.5559845"
       y="6.8803086"
       ry="5.3513513"
       rx="5.3513513" />
    <rect
       style="fill:#b472b9;fill-opacity:1;stroke-width:0.264583"
       id="rect1-7"
       width="19.876448"
       height="19.876448"
       x="33.337513"
       y="6.8791666"
       ry="5.3513513"
       rx="5.3513513" />
  </g>
</svg>
